<svg id="Layer_1" data-name="Layer 1" xmlns="http://www.w3.org/2000/svg" viewBox="0 0 100 100"><title>bigcommerce</title><path d="M0,100c1-1,22.25-22.84,23.26-23.84q5.65-5.64,11.3-11.28L44.48,55c.09-.1.19-.18.37-.35V71.1c0,.73.11.85.84.85H60.84a10.3,10.3,0,0,0,5-1.06,7.27,7.27,0,0,0,3.95-7.16,7.06,7.06,0,0,0-4.28-6.56c-.16-.07-.38-.3-.36-.4a.86.86,0,0,1,.4-.48,7.22,7.22,0,0,0,3.83-4.36,6.92,6.92,0,0,0-3.29-8,10.09,10.09,0,0,0-5.19-1.4H57L58.56,41l.34-.32L70.2,29.37l9-8.91L99.81-.19,100,100Z" style="fill:#34313e"/><path d="M20.21,79.59a.73.73,0,0,0,.73.33h58.5c.55,0,.6,0,.6-.62q0-29.23,0-58.49a2,2,0,0,0-.23-.64h.34V80H20.21Z" style="fill:#34313e"/><path d="M55.94,59.76c1.39,0,2.78,0,4.17,0a3.23,3.23,0,0,1,3.12,2.53,3.19,3.19,0,0,1-2.9,4,10.31,10.31,0,0,1-1.24.07H52c-.61,0-.72-.12-.73-.72V60.42c0-.57.12-.68.68-.69h4Z" style="fill:#34313e"/><path d="M55.79,48.08c1.33,0,2.67,0,4,0a2.88,2.88,0,0,1,2.69,1.76,3,3,0,0,1-.37,3.2,2.92,2.92,0,0,1-2.2,1.1c-1.07.06-2.14.06-3.22.07-1.56,0-3.12,0-4.68,0-.65,0-.77-.13-.77-.78V48.77c0-.6.12-.71.7-.71,1.29,0,2.57,0,3.86,0Z" style="fill:#34313e"/></svg>