<svg id="Layer_1" data-name="Layer 1" xmlns="http://www.w3.org/2000/svg" viewBox="0 0 100 100"><title>git</title><path d="M52.06,42.15c2.08,2.11,3.77,3.9,5.55,5.6.65.62.47,1.22.41,1.92a4.6,4.6,0,0,0,4.36,5.17,4.74,4.74,0,0,0,4.77-4.66,4.56,4.56,0,0,0-5.07-4.45,2.36,2.36,0,0,1-2.14-.86c-1-1-2-2-3-3-1.32-1.35-2.75-2.42-2.54-4.83s-2.23-4-4.62-3.8a2.62,2.62,0,0,1-2.43-1c-1.58-1.66-3.21-3.29-4.88-4.87-.71-.67-.79-1.1,0-1.8,1.47-1.36,2.83-2.82,4.26-4.23,2.06-2,4.12-2.07,6.18,0,3.36,3.3,6.67,6.65,10,10L78.16,46.56c2.45,2.46,2.45,4.38,0,6.81Q65.76,65.8,53.32,78.23c-2.38,2.38-4.32,2.38-6.68,0L21.76,53.42c-2.63-2.63-2.63-4.44,0-7.06C27.11,41,32.51,35.64,37.83,30.22c.94-1,1.47-1,2.32,0,1,1.17,2.15,2.18,3.23,3.27,1.24,1.26,2.74,2.25,2.15,4.55-.32,1.22.57,2.53,1.73,3.28a2.06,2.06,0,0,1,1,2q-.07,6.88,0,13.78a2.23,2.23,0,0,1-1,2,4.45,4.45,0,0,0-.6,6.68,4.54,4.54,0,0,0,6.49.22,4.43,4.43,0,0,0-.13-6.7,2.56,2.56,0,0,1-1-2.24C52.08,52.31,52.06,47.5,52.06,42.15Z" style="fill:#f2502a"/></svg>