<svg id="Layer_1" data-name="Layer 1" xmlns="http://www.w3.org/2000/svg" viewBox="0 0 100 100"><title>mailchimp</title><path d="M56.31,79a24.37,24.37,0,0,1-17.26-7.17,27,27,0,0,1-4.35-5.36.53.53,0,0,0-.52-.29,8.32,8.32,0,0,1-7.8-10.7.63.63,0,0,0-.28-.82c-.59-.4-1.12-.87-1.7-1.28A5.19,5.19,0,0,1,22.22,49a15.22,15.22,0,0,1,1.38-6.31,44.9,44.9,0,0,1,8.16-12.55A37.83,37.83,0,0,1,41.43,22a11.93,11.93,0,0,1,5.47-1.76,5.14,5.14,0,0,1,3.61,1.22c.53.44,1.09.85,1.61,1.31a.59.59,0,0,0,.82.06,20.22,20.22,0,0,1,6.79-2.66,9.63,9.63,0,0,1,3.82,0c2.82.61,4.41,2.95,4.16,6a17,17,0,0,1-2.79,7.59.67.67,0,0,0,.09.94c.85,1.1,1.62,2.26,2.46,3.38a7.47,7.47,0,0,1,1.1,3.7c.14,1.22.25,2.44.36,3.66a1,1,0,0,0,.67,1A14.5,14.5,0,0,1,73.85,49a1.4,1.4,0,0,0,.47.24,3,3,0,0,1,1.42,4.86.45.45,0,0,0-.08.63.68.68,0,0,1,.12.26,3.2,3.2,0,0,0,1.75,2.33,2.29,2.29,0,0,1,1,2.95,38.07,38.07,0,0,1-4.08,8.95,21.08,21.08,0,0,1-12.52,9.12A21.8,21.8,0,0,1,56.31,79ZM52.53,24.69c-.71-.76-1.62-1.31-2.32-2.07a1.36,1.36,0,0,0-1.9-.28l-.15.1a3.21,3.21,0,0,0-1.79-.06,13.81,13.81,0,0,0-5.12,2.19,40.69,40.69,0,0,0-9.67,8.89,31.4,31.4,0,0,0-3,4.23A32.87,32.87,0,0,0,25,44.9a11,11,0,0,0-.69,4.35,3.18,3.18,0,0,0,.67,2A14.55,14.55,0,0,0,27.13,53c.19.15.34.18.49,0a8.33,8.33,0,0,1,2.56-2.35l.09-.11h0l.45-.15a7.5,7.5,0,0,1,5.45-.26c.62.22.8.06,1-.49a39.31,39.31,0,0,1,4.54-8.23l.18-.12h0a3.26,3.26,0,0,0,.4-.34,21.47,21.47,0,0,1,3.4-3.27,25.47,25.47,0,0,1,10.65-5.24,12.07,12.07,0,0,1,5.08-.17,10.36,10.36,0,0,0,1.62.48c.35.19.35-.17.43-.31a15,15,0,0,0,2.34-6.25c.21-2-.59-3.87-2.94-4.35a8.67,8.67,0,0,0-3.09,0,9.39,9.39,0,0,0-2.62.64A33.29,33.29,0,0,0,52.53,24.69Zm3.85,37.93c0,.36-.13.73.09,1.07A2.25,2.25,0,0,0,58,65.24a7.38,7.38,0,0,0,2.54.44,18,18,0,0,0,7.33-1.5A24.05,24.05,0,0,0,74.51,60c.15-.05.23-.26.48-.2a4.82,4.82,0,0,1-1,1.38,20.28,20.28,0,0,1-8.82,5,14,14,0,0,1-6.37.47c-2.65-.46-4-2.29-3.48-4.73a2.83,2.83,0,0,1,3-2A21.2,21.2,0,0,0,64,59.18a19.49,19.49,0,0,0,10.22-6.37,1,1,0,0,0-.37-1.64A1.85,1.85,0,0,0,73,51a6.69,6.69,0,0,0-1-.94,20.16,20.16,0,0,0-4.26-2.37,2.21,2.21,0,0,1-.63-1.22c-.29-1.62-.31-3.28-.56-4.9a4.86,4.86,0,0,0-1.17-3A1.89,1.89,0,0,0,64,37.83a2.93,2.93,0,0,0-2.5,1,6.48,6.48,0,0,1-5.09,1.92,14.11,14.11,0,0,0-3.84,0A5.84,5.84,0,0,0,48.07,47a11.09,11.09,0,0,0,.11,2.27l-1-.75a7.84,7.84,0,0,0,2.74,4.4c-.21.24-.49,0-.7.21a11,11,0,0,0,2.48,1.47l-.47.52a9.47,9.47,0,0,0-2.64,8l.63-.82a9,9,0,0,0,.45,4.29l.86-1.64a9.5,9.5,0,0,0,1.14,4.22,5.23,5.23,0,0,1,.25-1.36c.11.24.21.43.29.63a6.94,6.94,0,0,0,5.08,4.21,16.32,16.32,0,0,0,16.39-6.31,13.11,13.11,0,0,0,2.36-5,2.91,2.91,0,0,0,.62-1.06,1.19,1.19,0,0,0-1.2-1.68,2.64,2.64,0,0,1-.93,0,6.86,6.86,0,0,0-.91-3.43c-.27.25-.48.45-.7.64s-.45.39-.68.57A23.7,23.7,0,0,1,58,61.08,1.42,1.42,0,0,0,56.38,62.62Zm-17.1-4.7a14.29,14.29,0,0,0-.69-3.73L38,55.7a12.12,12.12,0,0,0-.47-1.89,2.83,2.83,0,0,0-2.3-2,6.14,6.14,0,0,0-2.63,0A6.23,6.23,0,0,0,28,58.35a6.15,6.15,0,0,0,5.47,5.88,6,6,0,0,0,6.23-4.43,5.59,5.59,0,0,0,.15-2.94Z" style="fill:#684d47"/><path d="M71.66,74.54c.17-.06.3-.07.4.12s.1.28.2,0,.26-.26.37-.16.07.48.09.72-.14.13-.26.17-.45,0-.66,0c-.4,0-.14-.37-.18-.58Z" style="fill:#684d47"/><path d="M71.66,74.54l0,.27c-.26,0-.34.11-.33.35s0,.31-.18.3-.19-.2-.15-.31c.1-.28-.41-.43-.21-.59S71.36,74.47,71.66,74.54Z" style="fill:#9e7558"/><path d="M68,71.14A15.64,15.64,0,0,1,57.29,72.6a6.94,6.94,0,0,1-5.08-4.21c-.08-.2-.18-.39-.29-.63a5.23,5.23,0,0,0-.25,1.36,9.5,9.5,0,0,1-1.14-4.22l-.86,1.64a9,9,0,0,1-.45-4.29l-.63.82a9.47,9.47,0,0,1,2.64-8l.47-.52a1,1,0,0,0,.32-.13,8.78,8.78,0,0,1,3.57-1.75,5.5,5.5,0,0,0,1.54-.37c.76-.45,1.53-.89,2.31-1.3a.58.58,0,0,0,.36-.6,4,4,0,0,1,5.63-3.5c.19.13.46.22.56.4.45.86,1.09.62,1.75.36A20.16,20.16,0,0,1,72,50.05,6.69,6.69,0,0,1,73,51a7.37,7.37,0,0,1-2.76,3.68,24.83,24.83,0,0,1-10.84,4.17,9,9,0,0,0-3.13.75,1.87,1.87,0,0,0-1,2.32c-.49,2.44.83,4.27,3.48,4.73a14,14,0,0,0,6.37-.47,20.28,20.28,0,0,0,8.82-5,4.82,4.82,0,0,0,1-1.38c-.25-.06-.33.15-.48.2l0-1.46a2.64,2.64,0,0,0,.93,0,1.19,1.19,0,0,1,1.2,1.68A2.91,2.91,0,0,1,76,61.32c-.36.42-.7.85-1.08,1.25a22.14,22.14,0,0,1-9.65,6.05c-.52.16-.35.28-.11.54A11,11,0,0,0,68,71.14Zm-4.44-21a4.14,4.14,0,0,1,1.22-.48c.27.34.58.51,1,.17a1.08,1.08,0,0,0,.23-1.16c-.12-.39-.46-.37-.79-.35a1.77,1.77,0,0,0-2.74,1c-.42.1-.81.24-.69.81a1.21,1.21,0,0,0,1.16.82C63.37,51,63.53,50.63,63.53,50.19Z" style="fill:#f3dab9"/><path d="M41.71,41.4a39.31,39.31,0,0,0-4.54,8.23c-.21.55-.39.71-1,.49a7.5,7.5,0,0,0-5.45.26l-.45.15a2,2,0,0,1,.18-.8,38.3,38.3,0,0,1,6.44-11.56,40.26,40.26,0,0,1,8.48-8.26c.15-.1.27-.32.51-.2,0,.27-.22.35-.36.49a59.77,59.77,0,0,0-4.71,5.23,37.27,37.27,0,0,0-4.1,6c.3.06.37-.17.49-.3,1.21-1.43,2.41-2.87,3.63-4.29a55.45,55.45,0,0,1,7.65-8,51.44,51.44,0,0,1,8.25-5.72c1-.5,2-.85,3.06-1.27a8.67,8.67,0,0,1,3.09,0c2.35.48,3.15,2.31,2.94,4.35a15,15,0,0,1-2.34,6.25c-.08.14-.08.5-.43.31a4.74,4.74,0,0,0-2.83-2.24c-.05.24.16.31.18.47h0c-.56-.07-1-.48-1.51-.62a2.75,2.75,0,0,0-1.23-.28c.11.31.41.43.45.79a7.24,7.24,0,0,0-3.7-.41c.36.34.86.32,1.1.76a9.23,9.23,0,0,0-5.3.76,4.66,4.66,0,0,1,1.7.35A11,11,0,0,0,48,34c.5.13.91-.13,1.41,0l-.28.19A23.24,23.24,0,0,0,42.71,40a3.17,3.17,0,0,0-.82,1.33h0Z" style="fill:#132131"/><path d="M67.74,47.68c-.66.26-1.3.5-1.75-.36-.1-.18-.37-.27-.56-.4a4.73,4.73,0,0,0-.86-2.77c-.19-.28-.44-.55-.82-.45s-.45.47-.49.8a4.64,4.64,0,0,0,.25,2.09,4,4,0,0,0-3.71,3.83.58.58,0,0,1-.36.6c-.78.41-1.55.85-2.31,1.3a5.5,5.5,0,0,1-1.54.37A8.78,8.78,0,0,0,52,54.44a1,1,0,0,1-.32.13,11,11,0,0,1-2.48-1.47c.21-.17.49,0,.7-.21a7.84,7.84,0,0,1-2.74-4.4l1,.75A11.09,11.09,0,0,1,48.07,47c.11-.08.09-.2.11-.32a5,5,0,0,1,5.7-4,15,15,0,0,0,4.34,0,7.77,7.77,0,0,0,5.15-3.13,2,2,0,0,1,2-1,4.86,4.86,0,0,1,1.17,3c.25,1.62.27,3.28.56,4.9A2.21,2.21,0,0,0,67.74,47.68ZM55,47.44a3.85,3.85,0,0,0-2.58,1c-.22.2-.67.43-.43.79s.54-.05.8-.15a6.13,6.13,0,0,1,2.81-.49,9,9,0,0,1,1.92.56c.17.06.38.15.5,0s-.06-.36-.18-.49A3.63,3.63,0,0,0,55,47.44Zm2.56,3.19a.24.24,0,0,0,.25-.14c.08-.22-.13-.31-.27-.4a2.69,2.69,0,0,0-3.14.52c-.1.12-.27.25-.17.41s.31.07.46,0A4.92,4.92,0,0,1,57.6,50.63Z" style="fill:#e9bd8c"/><path d="M28.58,37.69a31.4,31.4,0,0,1,3-4.23,40.69,40.69,0,0,1,9.67-8.89,13.81,13.81,0,0,1,5.12-2.19,3.21,3.21,0,0,1,1.79.06v0a2.4,2.4,0,0,0-.21,1.94,10.23,10.23,0,0,1-1.57-.49,2.15,2.15,0,0,0-2.44.35,4.15,4.15,0,0,0,.35,1.77,15.82,15.82,0,0,0,.31,2.57.71.71,0,0,1-.32.8,34,34,0,0,0-4.78,4,42,42,0,0,0-6,7.41c-.23.37-.37.44-.75.13C31.37,39.87,30,38.79,28.58,37.69Z" style="fill:#46b7e1"/><path d="M28.58,37.69c1.39,1.1,2.79,2.18,4.15,3.31.38.31.52.24.75-.13a42,42,0,0,1,6-7.41,34,34,0,0,1,4.78-4,.71.71,0,0,0,.32-.8,15.82,15.82,0,0,1-.31-2.57c1,.78,1.94,1.66,2.89,2.51a2.91,2.91,0,0,1-1,.87c-.06,0-.14,0-.1.12h0c-.14-.06-.22,0-.24.13h0l0,0c-.24-.12-.36.1-.51.2a40.26,40.26,0,0,0-8.48,8.26,38.3,38.3,0,0,0-6.44,11.56,2,2,0,0,0-.18.8h0l-.09.11A8.33,8.33,0,0,0,27.62,53c-.15.22-.3.19-.49,0A14.55,14.55,0,0,1,25,51.23a3.18,3.18,0,0,1-.67-2A11,11,0,0,1,25,44.9,32.87,32.87,0,0,1,28.58,37.69Z" style="fill:#0787be"/><path d="M74.53,58.57l0,1.46a24.05,24.05,0,0,1-6.68,4.15,18,18,0,0,1-7.33,1.5A7.38,7.38,0,0,1,58,65.24a2.25,2.25,0,0,1-1.49-1.55c.37,0,.74.09,1.12.11A19.74,19.74,0,0,0,67.34,62a2.61,2.61,0,0,0,1.07-.71c-.14-.09-.25,0-.36,0a40.62,40.62,0,0,1-5.41,1.42,13.93,13.93,0,0,1-6.26-.07A1.42,1.42,0,0,1,58,61.08a23.7,23.7,0,0,0,14.27-4.73c.23-.18.46-.37.68-.57s.43-.39.7-.64A6.86,6.86,0,0,1,74.53,58.57Z" style="fill:#fdfcfc"/><path d="M39.28,57.92l.58-1.06a5.59,5.59,0,0,1-.15,2.94,6,6,0,0,1-6.23,4.43A6.15,6.15,0,0,1,28,58.35a6.23,6.23,0,0,1,4.62-6.55,6.14,6.14,0,0,1,2.63,0,2.83,2.83,0,0,1,2.3,2A12.12,12.12,0,0,1,38,55.7l.56-1.51A14.29,14.29,0,0,1,39.28,57.92ZM36.2,56.23c.15.15.13.54.45.44s.28-.4.27-.66a2.2,2.2,0,0,0-1.3-1.85,3.55,3.55,0,0,0-4,.34,3.65,3.65,0,0,0-1.34,3.85,2.57,2.57,0,0,0,.57,1.28c.16.19.37.38.61.25s0-.38,0-.56A3.66,3.66,0,0,1,31.84,56c.27.29,0,.59,0,.9a4.28,4.28,0,0,0,2.44,3.37,12.69,12.69,0,0,0,1.68.46,1.6,1.6,0,0,1-1.47.42c-.12,0-.29-.11-.36.06s.09.25.2.32a1.79,1.79,0,0,0,1.8.13,2.22,2.22,0,0,0,1.35-2.06,2.05,2.05,0,0,0-1.33-2c-1-.52-1-.68-.4-1.45Z" style="fill:#f2d9b8"/><path d="M65.38,38.56a2,2,0,0,0-2,1,7.77,7.77,0,0,1-5.15,3.13,15,15,0,0,1-4.34,0,5,5,0,0,0-5.7,4c0,.12,0,.24-.11.32a5.84,5.84,0,0,1,4.52-6.23,14.11,14.11,0,0,1,3.84,0,6.48,6.48,0,0,0,5.09-1.92,2.93,2.93,0,0,1,2.5-1A1.89,1.89,0,0,1,65.38,38.56Z" style="fill:#f2d9b8"/><path d="M60.39,31c0-.16-.23-.23-.18-.47A4.74,4.74,0,0,1,63,32.74a10.36,10.36,0,0,1-1.62-.48,12.07,12.07,0,0,0-5.08.17,25.47,25.47,0,0,0-10.65,5.24,21.47,21.47,0,0,0-3.4,3.27,3.26,3.26,0,0,1-.4.34A3.17,3.17,0,0,1,42.71,40a23.24,23.24,0,0,1,6.38-5.76l.28-.19c-.5-.13-.91.13-1.41,0a11,11,0,0,1,3.95-1.69,4.66,4.66,0,0,0-1.7-.35,9.23,9.23,0,0,1,5.3-.76c-.24-.44-.74-.42-1.1-.76a7.24,7.24,0,0,1,3.7.41c0-.36-.34-.48-.45-.79a2.75,2.75,0,0,1,1.23.28c.53.14,1,.55,1.51.62l0,.07s0,0,0,0Z" style="fill:#987155"/><path d="M55.28,61.91a1.87,1.87,0,0,1,1-2.32,9,9,0,0,1,3.13-.75,24.83,24.83,0,0,0,10.84-4.17A7.37,7.37,0,0,0,73,51a1.85,1.85,0,0,1,.86.18,1,1,0,0,1,.37,1.64A19.49,19.49,0,0,1,64,59.18a21.2,21.2,0,0,1-5.66.74A2.83,2.83,0,0,0,55.28,61.91Z" style="fill:#e8bd8d"/><path d="M68,71.14a11,11,0,0,1-2.77-2c-.24-.26-.41-.38.11-.54A22.14,22.14,0,0,0,75,62.57c.38-.4.72-.83,1.08-1.25a13.11,13.11,0,0,1-2.36,5A15.66,15.66,0,0,1,68,71.14Z" style="fill:#e9bd8c"/><path d="M46.16,29.44a2.91,2.91,0,0,0,1-.87,3.68,3.68,0,0,0,1-.83,4.68,4.68,0,0,0,1-.77,5,5,0,0,0,1-.72l.53-.37a3.61,3.61,0,0,0,.86-.58,3.83,3.83,0,0,0,1-.61,33.29,33.29,0,0,1,4.63-2.21,9.39,9.39,0,0,1,2.62-.64c-1,.42-2.07.77-3.06,1.27a51.44,51.44,0,0,0-8.25,5.72,55.45,55.45,0,0,0-7.65,8c-1.22,1.42-2.42,2.86-3.63,4.29-.12.13-.19.36-.49.3a37.27,37.27,0,0,1,4.1-6,59.77,59.77,0,0,1,4.71-5.23c.14-.14.39-.22.36-.49l0,0h0c.17.13.22,0,.24-.13h0C46.17,29.59,46.15,29.5,46.16,29.44Z" style="fill:#f6f6f7"/><path d="M52.53,24.69a3.83,3.83,0,0,1-1,.61l-1.29-1,.43,1.61-.53.37-2.65-.79c.61.62,1.23,1,1.67,1.51a4.68,4.68,0,0,1-1,.77l-4.25-3.45a2.15,2.15,0,0,1,2.44-.35,10.23,10.23,0,0,0,1.57.49,1.46,1.46,0,0,0,.87.29,20.08,20.08,0,0,0-.66-2.23v0l.15-.1a1.36,1.36,0,0,1,1.9.28C50.91,23.38,51.82,23.93,52.53,24.69Z" style="fill:#f9cd4f"/><path d="M56.38,62.62a13.93,13.93,0,0,0,6.26.07,40.62,40.62,0,0,0,5.41-1.42c.11,0,.22-.1.36,0a2.61,2.61,0,0,1-1.07.71,19.74,19.74,0,0,1-9.75,1.83c-.38,0-.75-.07-1.12-.11C56.25,63.35,56.39,63,56.38,62.62Z" style="fill:#eac091"/><path d="M41.71,41.4l.18-.12Z" style="fill:#987155"/><path d="M30.18,50.63l.09-.11Z" style="fill:#132131"/><path d="M63.51,46.59a4.64,4.64,0,0,1-.25-2.09c0-.33.1-.7.49-.8s.63.17.82.45a4.73,4.73,0,0,1,.86,2.77A4,4,0,0,0,63.51,46.59Z" style="fill:#684d47"/><path d="M64.75,49.71a4.14,4.14,0,0,0-1.22.48,1.44,1.44,0,0,0-1.13-.85,1.77,1.77,0,0,1,2.74-1A1.31,1.31,0,0,0,64.75,49.71Z" style="fill:#e8bd8d"/><path d="M62.4,49.34a1.44,1.44,0,0,1,1.13.85c0,.44-.16.76-.66.78a1.21,1.21,0,0,1-1.16-.82C61.59,49.58,62,49.44,62.4,49.34Z" style="fill:#9e7558"/><path d="M64.75,49.71a1.31,1.31,0,0,1,.39-1.34c.33,0,.67,0,.79.35a1.08,1.08,0,0,1-.23,1.16C65.33,50.22,65,50.05,64.75,49.71Z" style="fill:#9e7558"/><path d="M55,47.44a3.63,3.63,0,0,1,2.84,1.23c.12.13.35.28.18.49s-.33.06-.5,0a9,9,0,0,0-1.92-.56,6.13,6.13,0,0,0-2.81.49c-.26.1-.62.39-.8.15s.21-.59.43-.79A3.85,3.85,0,0,1,55,47.44Z" style="fill:#9e7558"/><path d="M57.6,50.63a4.92,4.92,0,0,0-2.87.4c-.15.06-.34.2-.46,0s.07-.29.17-.41a2.69,2.69,0,0,1,3.14-.52c.14.09.35.18.27.4A.24.24,0,0,1,57.6,50.63Z" style="fill:#9e7558"/><path d="M43.93,24.29l4.25,3.45a3.68,3.68,0,0,1-1,.83c-1-.85-1.88-1.73-2.89-2.51A4.15,4.15,0,0,1,43.93,24.29Z" style="fill:#162533"/><path d="M48.15,22.49a20.08,20.08,0,0,1,.66,2.23,1.46,1.46,0,0,1-.87-.29A2.4,2.4,0,0,1,48.15,22.49Z" style="fill:#162533"/><path d="M46.06,29.56c0,.16-.07.26-.24.13C45.84,29.55,45.92,29.5,46.06,29.56Z" style="fill:#132131"/><path d="M46.16,29.44c0,.06,0,.15-.1.12S46.1,29.45,46.16,29.44Z" style="fill:#132131"/><path d="M36,60.72a12.69,12.69,0,0,1-1.68-.46,4.28,4.28,0,0,1-2.44-3.37c0-.31.26-.61,0-.9a2.87,2.87,0,0,1,2.47-1.06,2.07,2.07,0,0,1,1.89,1.3l-.44-.12a.61.61,0,0,0-.85.1,1,1,0,0,0-.3,1,2.1,2.1,0,0,0,1.11,1.23A1.36,1.36,0,0,1,36,60.72Z" style="fill:#e8bd8d"/><path d="M36.2,56.23a2.07,2.07,0,0,0-1.89-1.3A2.87,2.87,0,0,0,31.84,56a3.66,3.66,0,0,0-.45,3.33c.05.18.31.41,0,.56s-.45-.06-.61-.25a2.57,2.57,0,0,1-.57-1.28,3.65,3.65,0,0,1,1.34-3.85,3.55,3.55,0,0,1,4-.34A2.2,2.2,0,0,1,36.92,56c0,.26,0,.58-.27.66S36.35,56.38,36.2,56.23Z" style="fill:#9e7558"/><path d="M36,60.72a1.36,1.36,0,0,0-.25-2.31,2.1,2.1,0,0,1-1.11-1.23,1,1,0,0,1,.3-1,.61.61,0,0,1,.85-.1c-.65.77-.62.93.4,1.45a2.05,2.05,0,0,1,1.33,2,2.22,2.22,0,0,1-1.35,2.06,1.79,1.79,0,0,1-1.8-.13c-.11-.07-.26-.17-.2-.32s.24-.09.36-.06A1.6,1.6,0,0,0,36,60.72Z" style="fill:#9e7558"/><path d="M60.39,31l0,0s0,0,0,0l0-.07Z" style="fill:#132131"/><path d="M49.18,27c-.44-.54-1.06-.89-1.67-1.51l2.65.79A5,5,0,0,1,49.18,27Z" style="fill:#162533"/><path d="M50.69,25.88l-.43-1.61,1.29,1A3.61,3.61,0,0,1,50.69,25.88Z" style="fill:#162533"/></svg>