<svg id="Layer_1" data-name="Layer 1" xmlns="http://www.w3.org/2000/svg" viewBox="0 0 100 100"><title>slack</title><path d="M58.91,23.47a5.35,5.35,0,0,0-10.17,3.31L62.56,69.3A5.35,5.35,0,0,0,72.73,66L58.91,23.47" style="fill:#dfa22f"/><path d="M37.5,30.43a5.35,5.35,0,0,0-10.17,3.3L41.15,76.26A5.35,5.35,0,0,0,51.31,73L37.5,30.43" style="fill:#3cb187"/><path d="M76.31,58.69A5.35,5.35,0,1,0,73,48.52L30.48,62.34a5.35,5.35,0,0,0,3.3,10.17L76.31,58.69" style="fill:#ce1e5b"/><path d="M39.34,70.7l10.17-3.3L46.2,57.23,36,60.54l3.3,10.16" style="fill:#392538"/><path d="M60.76,63.74l10.16-3.3-3.3-10.17L57.45,53.58l3.31,10.16" style="fill:#bb242a"/><path d="M69.35,37.27A5.34,5.34,0,1,0,66,27.11L23.52,40.93a5.35,5.35,0,0,0,3.31,10.16L69.35,37.27" style="fill:#72c5cd"/><path d="M32.38,49.29,42.55,46l-3.3-10.16-10.17,3.3,3.3,10.17" style="fill:#248c73"/><path d="M53.8,42.33,64,39l-3.3-10.16-10.17,3.3L53.8,42.33" style="fill:#62803a"/></svg>