<svg id="Layer_1" data-name="Layer 1" xmlns="http://www.w3.org/2000/svg" viewBox="0 0 100 100"><title>woocommerce</title><g id="ekDeFZ.tif"><path d="M75.18,25.25a7,7,0,0,1,2.54,1.08A5.41,5.41,0,0,1,80,30.76q0,9.39,0,18.77A5.52,5.52,0,0,1,74.47,55h-17c-.61,0-.6,0-.37.58l2,4.91c0,.08.06.17.12.36-.3-.15-.51-.25-.71-.37q-4.73-2.62-9.44-5.26a1.69,1.69,0,0,0-.88-.22c-7.42,0-14.84,0-22.26,0a5.72,5.72,0,0,1-5.86-4.69.6.6,0,0,0-.09-.15V30c.17-.11.13-.29.17-.44a5.55,5.55,0,0,1,3-3.74c.49-.25,1.05-.32,1.55-.54Zm-46,19.07c-.13-.53-.23-.93-.32-1.32-.9-3.88-1.57-7.79-2.17-11.72a1.75,1.75,0,0,0-.93-1.52,2.29,2.29,0,0,0-2.34.18,1.92,1.92,0,0,0-.78,2c.19,1.28.4,2.55.61,3.83a120.33,120.33,0,0,0,2.57,12.18,13.55,13.55,0,0,0,1.27,3.44,1.36,1.36,0,0,0,2.29.44A7.18,7.18,0,0,0,30.92,50a38.83,38.83,0,0,0,2.42-4.55L35.6,41c0,.06.07.08.08.11l.09.28a28.41,28.41,0,0,0,3.52,7.8,12.37,12.37,0,0,0,2.13,2.49,1.79,1.79,0,0,0,3.13-1.07,9.38,9.38,0,0,0,0-1.91,56.06,56.06,0,0,1,.92-9.32,28.17,28.17,0,0,1,2.29-8A2,2,0,0,0,47,28.93a2,2,0,0,0-3.11.78,29.22,29.22,0,0,0-2.55,8.62c-.26,1.5-.44,3-.63,4.66-.12-.27-.19-.41-.24-.56a47.44,47.44,0,0,1-1.89-6.74,8,8,0,0,0-.5-2,1.73,1.73,0,0,0-2.82-.55,3.75,3.75,0,0,0-.77,1.07L31.45,40C30.72,41.42,30,42.8,29.2,44.32Zm32.33-5.25a10.18,10.18,0,0,0-.61-3.75,6.11,6.11,0,0,0-10.58-1.83,12.67,12.67,0,0,0-2.65,10.64,6.54,6.54,0,0,0,2.68,4.42,6.15,6.15,0,0,0,8.38-1.37A12.82,12.82,0,0,0,61.53,39.07Zm15.36.26a10.24,10.24,0,0,0-.14-2.25,7.2,7.2,0,0,0-2.24-4.42,6,6,0,0,0-8.41.43,12.33,12.33,0,0,0-3,11.07,6.63,6.63,0,0,0,2.38,4.18,6.15,6.15,0,0,0,8.76-1.27A13,13,0,0,0,76.89,39.33Z" style="fill:#9b5c8f"/><path d="M79.62,73.76H75c-.16,0-.21,0-.21-.21q0-4.18,0-8.38c0-.18.07-.2.22-.2h4.34c.09,0,.18,0,.25,0v1.92H77.35c-.13,0-.17,0-.17.17,0,.41,0,.83,0,1.24,0,.16,0,.2.2.2h1.68c.16,0,.22,0,.22.21,0,.47,0,.95,0,1.42,0,.16,0,.2-.2.2h-1.7c-.17,0-.21,0-.2.2,0,.42,0,.83,0,1.24,0,.14,0,.18.17.18h2.27Z" style="fill:#020202"/><path d="M41.81,67.86c-.41,1.67-.8,3.27-1.19,4.88-.07.28-.15.55-.2.83s-.12.21-.28.21c-.39,0-.77,0-1.16,0a.24.24,0,0,1-.28-.22c-.44-1.77-.89-3.55-1.34-5.32a.89.89,0,0,0-.14-.32c-.1.91-.18,1.79-.27,2.67s-.21,2-.31,3c0,.13-.06.15-.17.15q-.94,0-1.89,0c-.18,0-.19-.06-.17-.21.15-1.16.29-2.32.44-3.48.2-1.56.4-3.11.59-4.67.06-.43.05-.43.48-.43.78,0,1.57,0,2.35,0,.2,0,.25.08.28.24.31,1.45.63,2.89.89,4.35a1.64,1.64,0,0,0,.08.24c.27-1.59.63-3.1,1-4.61,0-.16.08-.22.24-.21.89,0,1.78,0,2.67,0,.16,0,.22.05.24.2Q44,68,44.4,70.72c.13,1,.25,1.9.39,2.84,0,.18,0,.22-.19.22-.63,0-1.27,0-1.91,0-.2,0-.24-.07-.26-.25L41.86,68Z" style="fill:#020202"/><path d="M50.27,69.72c.09-.49.17-1,.28-1.45.23-1,.47-2.06.7-3.1,0-.15.09-.18.24-.18h2.66c.17,0,.22.05.24.21q.49,3.75,1,7.5c0,.29.07.58.12.87s0,.21-.18.21c-.66,0-1.31,0-2,0-.14,0-.18,0-.2-.18-.11-1.1-.23-2.2-.34-3.29-.09-.8-.17-1.59-.3-2.39-.13.49-.25,1-.37,1.46l-1,4.17c0,.17-.1.24-.29.23-.39,0-.79,0-1.19,0-.15,0-.2,0-.24-.19-.48-1.91-1-3.82-1.48-5.73,0,.47-.11.94-.15,1.41-.15,1.44-.29,2.88-.43,4.32,0,.14,0,.19-.2.19-.64,0-1.28,0-1.91,0-.13,0-.16,0-.14-.17L46,67c.08-.6.16-1.2.22-1.8,0-.2.1-.25.29-.24.83,0,1.66,0,2.48,0,.23,0,.29.08.33.28.31,1.46.63,2.91.89,4.37l0,.09Z" style="fill:#020202"/><path d="M34.2,69.36a7.4,7.4,0,0,1-.31,2.09A3.5,3.5,0,0,1,30.16,74a3.44,3.44,0,0,1-3.29-2.3,5.53,5.53,0,0,1-.29-1.2A7.13,7.13,0,0,1,26.86,67,3.39,3.39,0,0,1,30,64.75a4.43,4.43,0,0,1,2,.34,3.56,3.56,0,0,1,2,2.73A8,8,0,0,1,34.2,69.36Zm-5.19,0a6.59,6.59,0,0,0,.18,1.81A1.09,1.09,0,0,0,30,72a1.18,1.18,0,0,0,1.47-.91,7,7,0,0,0,.18-2.28,3.25,3.25,0,0,0-.33-1.37,1.07,1.07,0,0,0-.8-.63,1.1,1.1,0,0,0-1.27.8A5.12,5.12,0,0,0,29,69.31Z" style="fill:#020202"/><path d="M64.09,69.83c0,1.2,0,2.41,0,3.61,0,.27-.06.35-.33.34-.61,0-1.23,0-1.84,0-.16,0-.22,0-.22-.21q0-4.18,0-8.37c0-.15,0-.22.2-.21C63,65,64,65,65,65a3.74,3.74,0,0,1,2.07.69,2.37,2.37,0,0,1-.23,4c-.18.1-.2.18-.11.36.56,1.15,1.11,2.31,1.66,3.46l.09.21c-.06.07-.14,0-.2,0H66.25a.29.29,0,0,1-.3-.2c-.56-1.17-1.12-2.34-1.69-3.51l-.12-.25Zm.25-1.08a1.87,1.87,0,0,0,.68-.12.81.81,0,0,0,.63-.79,1,1,0,0,0-.59-1,3,3,0,0,0-.78-.16c-.16,0-.21,0-.21.19,0,.53,0,1.07,0,1.6C64.06,68.7,64.1,68.84,64.34,68.75Z" style="fill:#020202"/><path d="M56.23,69.4c0-1.38,0-2.76,0-4.14,0-.18,0-.26.25-.26q2.16,0,4.32,0c.2,0,.24.06.23.25,0,.47,0,.94,0,1.42,0,.16,0,.22-.21.21h-2c-.16,0-.21,0-.21.19,0,.41,0,.81,0,1.22,0,.18.07.2.22.2h1.68c.16,0,.21,0,.21.2,0,.48,0,1,0,1.45,0,.15-.05.18-.19.18H58.83c-.17,0-.25,0-.24.23a11.22,11.22,0,0,1,0,1.16c0,.18,0,.23.23.23h2c.18,0,.24,0,.23.23,0,.48,0,1,0,1.45,0,.15,0,.21-.2.21H56.42c-.2,0-.2-.1-.19-.24Z" style="fill:#020202"/><path d="M74.14,72.75c0,.29,0,.58,0,.88,0,.12,0,.17-.16.21A4.47,4.47,0,0,1,68.23,70a4.66,4.66,0,0,1,.83-3.53,4.49,4.49,0,0,1,4.22-1.73c.28,0,.64,0,.81.16s0,.53,0,.8,0,.71,0,1.06c0,.19-.05.22-.22.17a3.24,3.24,0,0,0-1.35-.12,2.06,2.06,0,0,0-1.73,1.57,3.18,3.18,0,0,0,0,1.93,2.15,2.15,0,0,0,2.42,1.53c.22,0,.44-.08.66-.14s.22,0,.21.18S74.14,72.47,74.14,72.75Z" style="fill:#020202"/><path d="M26,72.77c0,.29,0,.57,0,.86,0,.12,0,.18-.16.21A4.47,4.47,0,0,1,20.07,70a5.4,5.4,0,0,1,.14-2.12,4.34,4.34,0,0,1,4-3.13,6.62,6.62,0,0,1,1.54.11c.14,0,.22.08.21.25q0,.84,0,1.68c0,.18,0,.22-.21.17a3.34,3.34,0,0,0-1.44-.11,2.11,2.11,0,0,0-1.7,1.76,3.1,3.1,0,0,0,.14,1.95,2.14,2.14,0,0,0,2.34,1.31l.66-.13c.18-.06.22,0,.21.17S26,72.49,26,72.77Z" style="fill:#020202"/><path d="M29.2,44.32c.79-1.52,1.52-2.9,2.25-4.29l3.06-5.82a3.75,3.75,0,0,1,.77-1.07,1.73,1.73,0,0,1,2.82.55,8,8,0,0,1,.5,2,47.44,47.44,0,0,0,1.89,6.74c0,.15.12.29.24.56.19-1.65.37-3.16.63-4.66a29.22,29.22,0,0,1,2.55-8.62A2,2,0,0,1,47,28.93a2,2,0,0,1,.72,2.44,28.17,28.17,0,0,0-2.29,8,56.06,56.06,0,0,0-.92,9.32,9.38,9.38,0,0,1,0,1.91,1.79,1.79,0,0,1-3.13,1.07,12.37,12.37,0,0,1-2.13-2.49,28.41,28.41,0,0,1-3.52-7.8l-.09-.28s0-.05-.08-.11l-2.26,4.47A38.83,38.83,0,0,1,30.92,50a7.18,7.18,0,0,1-1.52,1.78,1.36,1.36,0,0,1-2.29-.44,13.55,13.55,0,0,1-1.27-3.44,120.33,120.33,0,0,1-2.57-12.18c-.21-1.28-.42-2.55-.61-3.83a1.92,1.92,0,0,1,.78-2,2.29,2.29,0,0,1,2.34-.18,1.75,1.75,0,0,1,.93,1.52c.6,3.93,1.27,7.84,2.17,11.72C29,43.39,29.07,43.79,29.2,44.32Z" style="fill:#fdfdfd"/><path d="M61.53,39.07a12.82,12.82,0,0,1-2.78,8.11,6.15,6.15,0,0,1-8.38,1.37,6.54,6.54,0,0,1-2.68-4.42,12.67,12.67,0,0,1,2.65-10.64,6.11,6.11,0,0,1,10.58,1.83A10.18,10.18,0,0,1,61.53,39.07Zm-4.08.19a6,6,0,0,0-.91-3.21,1.57,1.57,0,0,0-2.23-.51,2.92,2.92,0,0,0-.79.65,7.79,7.79,0,0,0-1.92,6.1,4.83,4.83,0,0,0,.95,2.49,1.42,1.42,0,0,0,1.65.53,3,3,0,0,0,1.31-.84A7.39,7.39,0,0,0,57.45,39.26Z" style="fill:#fdfdfd"/><path d="M76.89,39.33a13,13,0,0,1-2.69,7.74,6.15,6.15,0,0,1-8.76,1.27,6.63,6.63,0,0,1-2.38-4.18,12.33,12.33,0,0,1,3-11.07,6,6,0,0,1,8.41-.43,7.2,7.2,0,0,1,2.24,4.42A10.24,10.24,0,0,1,76.89,39.33Zm-10,2.38a6,6,0,0,0,.72,2.67,1.62,1.62,0,0,0,2.56.64,4.85,4.85,0,0,0,1.73-2,8.51,8.51,0,0,0,.87-4.18,5.32,5.32,0,0,0-.86-2.78,1.59,1.59,0,0,0-2.26-.55,3.3,3.3,0,0,0-1,.88A8.08,8.08,0,0,0,66.91,41.71Z" style="fill:#fdfdfd"/><path d="M57.45,39.26a7.39,7.39,0,0,1-1.94,5.21,3,3,0,0,1-1.31.84,1.42,1.42,0,0,1-1.65-.53,4.83,4.83,0,0,1-.95-2.49,7.79,7.79,0,0,1,1.92-6.1,2.92,2.92,0,0,1,.79-.65,1.57,1.57,0,0,1,2.23.51A6,6,0,0,1,57.45,39.26Z" style="fill:#9b5c8f"/><path d="M66.91,41.71a8.08,8.08,0,0,1,1.78-5.29,3.3,3.3,0,0,1,1-.88,1.59,1.59,0,0,1,2.26.55,5.32,5.32,0,0,1,.86,2.78,8.51,8.51,0,0,1-.87,4.18,4.85,4.85,0,0,1-1.73,2,1.62,1.62,0,0,1-2.56-.64A6,6,0,0,1,66.91,41.71Z" style="fill:#9b5c8f"/></g></svg>